<?xml version="1.0" encoding="utf-8"?>
<!-- Generator: Adobe Illustrator 24.0.1, SVG Export Plug-In . SVG Version: 6.00 Build 0)  -->
<svg version="1.1" id="Слой_1" xmlns="http://www.w3.org/2000/svg" xmlns:xlink="http://www.w3.org/1999/xlink" x="0px" y="0px"
	 viewBox="0 0 841.9 595.3" style="enable-background:new 0 0 841.9 595.3;" xml:space="preserve">
<style type="text/css">
	.st0{fill:#FFFFFF;}
</style>
<g>
	<g>
		<path class="st0" d="M455.7,201.6c11.1,2.3,22,5.7,29.3,10.4c0,0-2.1,22.8-14.5,51.1c3.2,1.5,6.5,3.2,9.8,5.2
			c15.9-35.2,18.6-64.1,18.6-64.1c-8.7-5.7-21.8-9.7-35.1-12.5c-9.3-2-18.7-3.3-28.1-4.1c0.4,4.1,0.6,8,0.6,10.9
			C442.8,199.2,449.3,200.2,455.7,201.6z"/>
		<path class="st0" d="M450.9,265.6c10.1-21.2,11.8-39.1,11.8-39.1c-4.9-3.2-12.4-5.5-19.9-7.1c-5.3-1.1-10.7-1.9-16.1-2.4
			c0.1-5.5-0.1-10.9-0.4-15.9l-1.1-14.2L424,177c-1.5-10.6-3.1-17.2-3.1-17.2h-16.4c2.3,9.5,4,18.5,5.1,27c-14.3,0.4-28.6,2-42.6,5
			c-13.3,2.8-26.4,6.8-35.1,12.5c0,0,3.5,37,25.7,78.5l10.2-4.2c4.3-2,11.7-4.7,15.6-6l3.8,6.5c6.8,10.7,15.9,21.5,28.2,30.7
			c13.4-10,23.1-22,30-33.7c6,1.6,11.4,3.4,16.1,5.1c-10.3,18.2-25.1,37.2-46.1,53c-19.1-14.3-33-31.2-43.1-47.8l-10,4.8
			c12.3,20.7,29.3,41.9,53.1,59.7c25.9-19.4,43.9-42.9,56.3-65.3c6.3,2.9,9.9,5.2,9.9,5.2l11.4-6.8
			C480.2,274.9,464.9,269.2,450.9,265.6z M362.8,268.7c-14.6-30.8-17-56.7-17-56.7c7.3-4.7,18.2-8.1,29.3-10.4
			c11.8-2.5,23.8-3.9,35.8-4.1c0.6,6.9,0.9,13.3,0.9,19.2c-8,0.2-16,1.2-23.8,2.8c-7.5,1.6-15,3.9-19.9,7.1c0,0,1.5,16,10.3,35.7
			C373,264,366,267.2,362.8,268.7z M415.4,296c-32-23.9-35.5-62.3-35.5-62.3c3.9-2.5,9.9-4.3,15.8-5.5c5.3-1.1,10.6-1.7,16-1.9
			c-1.1,27.1-7.1,42.5-7.1,42.5l-0.5,2.2l14.4,1.1c6.2,0.5,12.1,0.7,17.6,1.8C430.9,281.6,424.2,289.4,415.4,296z M441.8,263.5
			c-7.7-1.6-14.6-2.5-20.1-3.1c2.8-11.2,4.2-22.6,4.8-33.6c2.9,0.3,5.8,0.8,8.7,1.3c5.9,1.2,11.9,3,15.8,5.5
			C450.9,233.6,449.6,247.4,441.8,263.5z"/>
	</g>
	<g>
		<path class="st0" d="M308,404v-17.1h-8v-4.7h20.7v4.7h-8V404H308z"/>
		<path class="st0" d="M322.9,404.1v-21.9h4.7v21.9H322.9z M340,404.1V395h-9.7v-4h9.7v-8.7h4.7v21.9H340z"/>
		<path class="st0" d="M348.1,404v-21.8H368v4.7h-15.2v12.5H368v4.7H348.1z M355.5,394.8v-3.7h11.6v3.7H355.5z"/>
		<path class="st0" d="M381.1,404c-6.2,0-10.8-4.8-10.8-11.1c0-6.4,4.6-10.7,10.8-10.7h5.4c6.4,0,10.9,4.4,10.9,10.7
			s-4.6,11.1-10.9,11.1H381.1z M386.5,399.4c3.6,0,6.2-2.6,6.2-6.2c0-3.6-2.6-6.2-6.2-6.2h-5.4c-3.5,0-6.1,2.6-6.1,6.2
			c0,3.6,2.6,6.2,6.1,6.2H386.5z"/>
		<path class="st0" d="M410.3,404c-6.2,0-10.8-4.8-10.8-11.1c0-6.4,4.6-10.7,10.8-10.7h5.4c6.4,0,10.9,4.4,10.9,10.7
			S422,404,415.7,404H410.3z M415.7,399.4c3.6,0,6.2-2.6,6.2-6.2c0-3.6-2.6-6.2-6.2-6.2h-5.4c-3.5,0-6.1,2.6-6.1,6.2
			c0,3.6,2.6,6.2,6.1,6.2H415.7z"/>
		<path class="st0" d="M429.4,404v-21.8h4.7v17.1h14.1v4.7H429.4z"/>
		<path class="st0" d="M453.1,404.3c-1.4,0-2.4-1.1-2.4-2.4s1.1-2.4,2.4-2.4c1.4,0,2.5,1.1,2.5,2.4S454.4,404.3,453.1,404.3z"/>
		<path class="st0" d="M463.4,389.5V404h-4.4v-19.3c0-1.7,0.9-2.8,2.3-2.8c0.7,0,1.2,0.2,1.9,0.9l14.3,13.7V382h4.5v19.5
			c0,1.7-1,2.8-2.3,2.8c-0.7,0-1.3-0.3-1.9-0.9L463.4,389.5z"/>
		<path class="st0" d="M485.3,404v-21.8h19.8v4.7H490v12.5h15.2v4.7H485.3z M492.7,394.8v-3.7h11.6v3.7H492.7z"/>
		<path class="st0" d="M514.9,404v-17.1h-8v-4.7h20.7v4.7h-8V404H514.9z"/>
	</g>
	<g>
		<path class="st0" d="M351.6,430.5h-1.4v-7.2h-2.5v-1.2h6.3v1.2h-2.5V430.5z"/>
		<path class="st0" d="M362,430.5h-1.4v-3.8h-3.9v3.8h-1.4v-8.4h1.4v3.4h3.9v-3.4h1.4V430.5z"/>
		<path class="st0" d="M368.9,430.5h-4.8v-8.4h4.8v1.2h-3.4v2.3h3.2v1.2h-3.2v2.6h3.4V430.5z"/>
		<path class="st0" d="M381.3,426.3c0,1.4-0.3,2.4-1,3.2c-0.7,0.8-1.7,1.1-2.9,1.1c-1.3,0-2.2-0.4-2.9-1.1c-0.7-0.8-1-1.8-1-3.2
			s0.3-2.5,1-3.2s1.7-1.1,2.9-1.1c1.3,0,2.2,0.4,2.9,1.1C381,423.8,381.3,424.9,381.3,426.3z M374.9,426.3c0,1,0.2,1.8,0.6,2.4
			c0.4,0.5,1,0.8,1.9,0.8c0.8,0,1.4-0.3,1.9-0.8c0.4-0.5,0.6-1.3,0.6-2.4c0-1-0.2-1.8-0.6-2.3c-0.4-0.5-1-0.8-1.8-0.8
			c-0.8,0-1.4,0.3-1.9,0.8C375.1,424.4,374.9,425.2,374.9,426.3z"/>
		<path class="st0" d="M384.5,427.1v3.4h-1.4v-8.4h2.4c1.1,0,1.9,0.2,2.4,0.6c0.5,0.4,0.8,1,0.8,1.8c0,1-0.5,1.8-1.6,2.2l2.4,3.7
			h-1.6l-2-3.4H384.5z M384.5,426h1c0.6,0,1.1-0.1,1.4-0.4c0.3-0.2,0.4-0.6,0.4-1.1c0-0.5-0.2-0.8-0.5-1c-0.3-0.2-0.8-0.3-1.4-0.3
			h-0.9V426z"/>
		<path class="st0" d="M395.9,430.5l-0.8-2.3h-3.2l-0.8,2.3h-1.5l3.1-8.5h1.5l3.1,8.5H395.9z M394.7,427l-0.8-2.3
			c-0.1-0.2-0.1-0.4-0.2-0.7s-0.2-0.6-0.2-0.7c-0.1,0.5-0.3,1-0.5,1.5l-0.8,2.2H394.7z"/>
		<path class="st0" d="M402,423.1c-0.8,0-1.4,0.3-1.9,0.8c-0.5,0.6-0.7,1.3-0.7,2.3c0,1,0.2,1.8,0.7,2.3c0.4,0.5,1.1,0.8,1.9,0.8
			c0.4,0,0.7,0,1-0.1s0.7-0.2,1-0.3v1.2c-0.7,0.2-1.4,0.4-2.2,0.4c-1.2,0-2.2-0.4-2.8-1.1c-0.7-0.7-1-1.8-1-3.2
			c0-0.9,0.2-1.6,0.5-2.3s0.8-1.2,1.4-1.5c0.6-0.3,1.3-0.5,2.1-0.5c0.9,0,1.7,0.2,2.4,0.5l-0.5,1.1c-0.3-0.1-0.6-0.3-0.9-0.4
			C402.7,423.2,402.4,423.1,402,423.1z"/>
		<path class="st0" d="M405.9,430.5v-8.4h1.4v7.2h3.6v1.2H405.9z"/>
		<path class="st0" d="M417.1,430.5h-4.8v-8.4h4.8v1.2h-3.4v2.3h3.2v1.2h-3.2v2.6h3.4V430.5z"/>
		<path class="st0" d="M429.4,426.3c0,1.4-0.3,2.4-1,3.2c-0.7,0.8-1.7,1.1-2.9,1.1c-1.3,0-2.2-0.4-2.9-1.1c-0.7-0.8-1-1.8-1-3.2
			s0.3-2.5,1-3.2s1.7-1.1,2.9-1.1c1.3,0,2.2,0.4,2.9,1.1C429.1,423.8,429.4,424.9,429.4,426.3z M423,426.3c0,1,0.2,1.8,0.6,2.4
			c0.4,0.5,1,0.8,1.9,0.8c0.8,0,1.4-0.3,1.9-0.8c0.4-0.5,0.6-1.3,0.6-2.4c0-1-0.2-1.8-0.6-2.3c-0.4-0.5-1-0.8-1.8-0.8
			c-0.8,0-1.4,0.3-1.9,0.8C423.2,424.4,423,425.2,423,426.3z"/>
		<path class="st0" d="M432.6,430.5h-1.4v-8.4h4.8v1.2h-3.4v2.6h3.2v1.2h-3.2V430.5z"/>
		<path class="st0" d="M440.6,430.5v-8.4h1.4v7.2h3.6v1.2H440.6z"/>
		<path class="st0" d="M447,430.5v-8.4h1.4v8.4H447z"/>
		<path class="st0" d="M450.6,422.1h2.5c1.2,0,2,0.2,2.5,0.5c0.5,0.3,0.8,0.9,0.8,1.6c0,0.5-0.1,0.9-0.4,1.2
			c-0.3,0.3-0.6,0.5-1.1,0.6v0.1c0.6,0.1,1,0.3,1.3,0.7s0.4,0.8,0.4,1.3c0,0.8-0.3,1.3-0.8,1.8c-0.5,0.4-1.3,0.6-2.2,0.6h-3V422.1z
			 M451.9,425.5h1.3c0.6,0,1-0.1,1.3-0.3c0.3-0.2,0.4-0.5,0.4-0.9c0-0.4-0.1-0.7-0.4-0.9s-0.7-0.3-1.4-0.3h-1.2V425.5z M451.9,426.7
			v2.7h1.5c0.6,0,1-0.1,1.3-0.3c0.3-0.2,0.4-0.6,0.4-1c0-0.4-0.1-0.8-0.4-1c-0.3-0.2-0.8-0.3-1.4-0.3H451.9z"/>
		<path class="st0" d="M463.1,430.5h-4.8v-8.4h4.8v1.2h-3.4v2.3h3.2v1.2h-3.2v2.6h3.4V430.5z"/>
		<path class="st0" d="M466.3,427.1v3.4h-1.4v-8.4h2.4c1.1,0,1.9,0.2,2.4,0.6c0.5,0.4,0.8,1,0.8,1.8c0,1-0.5,1.8-1.6,2.2l2.4,3.7
			h-1.6l-2-3.4H466.3z M466.3,426h1c0.6,0,1.1-0.1,1.4-0.4c0.3-0.2,0.4-0.6,0.4-1.1c0-0.5-0.2-0.8-0.5-1c-0.3-0.2-0.8-0.3-1.4-0.3
			h-0.9V426z"/>
		<path class="st0" d="M475.4,430.5H474v-7.2h-2.5v-1.2h6.3v1.2h-2.5V430.5z"/>
		<path class="st0" d="M481.5,425.9l2-3.8h1.5l-2.8,5.2v3.3h-1.4v-3.2l-2.8-5.2h1.5L481.5,425.9z"/>
	</g>
</g>
</svg>
