<?xml version="1.0" encoding="utf-8"?>
<!-- Generator: Adobe Illustrator 24.0.1, SVG Export Plug-In . SVG Version: 6.00 Build 0)  -->
<svg version="1.1" id="Слой_1" xmlns="http://www.w3.org/2000/svg" xmlns:xlink="http://www.w3.org/1999/xlink" x="0px" y="0px"
	 viewBox="0 0 841.9 595.3" style="enable-background:new 0 0 841.9 595.3;" xml:space="preserve">
<style type="text/css">
	.st0{fill:url(#SVGID_1_);}
	.st1{fill:url(#SVGID_2_);}
	.st2{fill:url(#SVGID_3_);}
	.st3{fill:url(#SVGID_4_);}
	.st4{fill:url(#SVGID_5_);}
	.st5{fill:url(#SVGID_6_);}
	.st6{fill:url(#SVGID_7_);}
	.st7{fill:url(#SVGID_8_);}
	.st8{fill:url(#SVGID_9_);}
	.st9{fill:url(#SVGID_10_);}
	.st10{fill:url(#SVGID_11_);}
	.st11{fill:url(#SVGID_12_);}
	.st12{fill:url(#SVGID_13_);}
	.st13{fill:url(#SVGID_14_);}
	.st14{fill:url(#SVGID_15_);}
	.st15{fill:url(#SVGID_16_);}
	.st16{fill:url(#SVGID_17_);}
	.st17{fill:url(#SVGID_18_);}
	.st18{fill:url(#SVGID_19_);}
	.st19{fill:url(#SVGID_20_);}
	.st20{fill:url(#SVGID_21_);}
	.st21{fill:url(#SVGID_22_);}
	.st22{fill:url(#SVGID_23_);}
	.st23{fill:url(#SVGID_24_);}
	.st24{fill:url(#SVGID_25_);}
	.st25{fill:url(#SVGID_26_);}
	.st26{fill:url(#SVGID_27_);}
	.st27{fill:url(#SVGID_28_);}
	.st28{fill:url(#SVGID_29_);}
	.st29{fill:url(#SVGID_30_);}
</style>
<g>
	<g>
		<radialGradient id="SVGID_1_" cx="502.6956" cy="189.2877" r="55.0981" gradientUnits="userSpaceOnUse">
			<stop  offset="0" style="stop-color:#B9A9D3"/>
			<stop  offset="1" style="stop-color:#5A4C9A"/>
		</radialGradient>
		<path class="st0" d="M485.1,149.2c16.8,3.6,33.5,8.6,44.5,15.8c0,0-3.2,34.7-22,77.7c4.9,2.2,9.9,4.9,14.9,7.9
			c24.2-53.6,28.3-97.4,28.3-97.4c-13.2-8.6-33.2-14.7-53.4-19c-14.1-3-28.4-5.1-42.7-6.3c0.6,6.2,0.9,12.1,0.9,16.6
			C465.5,145.6,475.3,147.1,485.1,149.2z"/>
		<radialGradient id="SVGID_2_" cx="419.2606" cy="230.8537" r="134.2466" gradientUnits="userSpaceOnUse">
			<stop  offset="0" style="stop-color:#B9A9D3"/>
			<stop  offset="1" style="stop-color:#5A4C9A"/>
		</radialGradient>
		<path class="st1" d="M477.9,246.5c15.4-32.2,17.9-59.4,17.9-59.4c-7.5-4.9-18.8-8.3-30.3-10.8c-8.1-1.7-16.2-2.9-24.4-3.6
			c0.1-8.4-0.1-16.5-0.6-24.2l-1.7-21.6l-1.9-15.1c-2.3-16.1-4.7-26.1-4.7-26.1h-25c3.5,14.5,6.1,28.1,7.8,41
			c-21.7,0.5-43.4,3-64.8,7.6c-20.2,4.3-40.2,10.4-53.4,19c0,0,5.3,56.3,39,119.3l15.6-6.3c6.6-3.1,17.9-7.1,23.7-9.1l5.8,9.8
			c10.3,16.3,24.2,32.7,42.8,46.6c20.4-15.3,35.1-33.4,45.6-51.2c9.1,2.4,17.3,5.1,24.5,7.8c-15.7,27.7-38.1,56.5-70.1,80.5
			c-29-21.7-50.1-47.4-65.5-72.7l-15.2,7.3c18.6,31.4,44.6,63.6,80.7,90.7c39.4-29.5,66.7-65.2,85.6-99.3c9.6,4.5,15,7.8,15,7.8
			l17.3-10.4C522.3,260.6,499.1,252,477.9,246.5z M343.9,251.2C321.7,204.3,318,165,318,165c11-7.2,27.7-12.3,44.5-15.8
			c17.9-3.8,36.1-5.9,54.4-6.3c1,10.4,1.4,20.2,1.4,29.2c-12.2,0.3-24.3,1.8-36.2,4.3c-11.5,2.4-22.8,5.9-30.3,10.8
			c0,0,2.3,24.3,15.6,54.3C359.4,244,348.7,248.9,343.9,251.2z M423.8,292.6c-48.6-36.4-54-94.8-54-94.8c5.9-3.8,15-6.5,24-8.3
			c8-1.6,16.1-2.6,24.3-2.9c-1.6,41.3-10.9,64.6-10.9,64.6l-0.8,3.4l21.9,1.7c9.4,0.7,18.4,1,26.8,2.7
			C447.4,270.8,437.3,282.6,423.8,292.6z M463.9,243.3c-11.6-2.4-22.2-3.8-30.6-4.7c4.2-17,6.4-34.4,7.3-51c4.4,0.5,8.8,1.2,13.2,2
			c9,1.8,18.1,4.5,24,8.3C477.8,197.9,475.9,218.7,463.9,243.3z"/>
	</g>
	<g>
		<radialGradient id="SVGID_3_" cx="264.135" cy="440.287" r="16.175" gradientUnits="userSpaceOnUse">
			<stop  offset="0" style="stop-color:#B9A9D3"/>
			<stop  offset="1" style="stop-color:#5A4C9A"/>
		</radialGradient>
		<path class="st2" d="M260.6,456.9v-26.1h-12.2v-7.1h31.5v7.1h-12.2v26.1H260.6z"/>
		<radialGradient id="SVGID_4_" cx="299.7907" cy="440.333" r="16.5803" gradientUnits="userSpaceOnUse">
			<stop  offset="0" style="stop-color:#B9A9D3"/>
			<stop  offset="1" style="stop-color:#5A4C9A"/>
		</radialGradient>
		<path class="st3" d="M283.3,457v-33.3h7.1V457H283.3z M309.2,457v-13.9h-14.7V437h14.7v-13.3h7.1V457H309.2z"/>
		<radialGradient id="SVGID_5_" cx="336.7036" cy="440.287" r="15.8563" gradientUnits="userSpaceOnUse">
			<stop  offset="0" style="stop-color:#B9A9D3"/>
			<stop  offset="1" style="stop-color:#5A4C9A"/>
		</radialGradient>
		<path class="st4" d="M321.6,456.9v-33.2h30.1v7.1h-23.1v18.9h23.1v7.1H321.6z M332.8,442.8v-5.6h17.6v5.6H332.8z"/>
		<radialGradient id="SVGID_6_" cx="375.9199" cy="440.287" r="18.6827" gradientUnits="userSpaceOnUse">
			<stop  offset="0" style="stop-color:#B9A9D3"/>
			<stop  offset="1" style="stop-color:#5A4C9A"/>
		</radialGradient>
		<path class="st5" d="M371.7,456.9c-9.4,0-16.4-7.3-16.4-16.9c0-9.8,6.9-16.2,16.4-16.2h8.2c9.8,0,16.5,6.6,16.5,16.2
			s-6.9,16.9-16.5,16.9H371.7z M380,449.8c5.5,0,9.4-4,9.4-9.4c0-5.5-3.9-9.5-9.4-9.5h-8.2c-5.3,0-9.3,4-9.3,9.5
			c0,5.5,3.9,9.4,9.3,9.4H380z"/>
		<radialGradient id="SVGID_7_" cx="420.3422" cy="440.287" r="18.6827" gradientUnits="userSpaceOnUse">
			<stop  offset="0" style="stop-color:#B9A9D3"/>
			<stop  offset="1" style="stop-color:#5A4C9A"/>
		</radialGradient>
		<path class="st6" d="M416.2,456.9c-9.4,0-16.4-7.3-16.4-16.9c0-9.8,6.9-16.2,16.4-16.2h8.2c9.8,0,16.5,6.6,16.5,16.2
			s-6.9,16.9-16.5,16.9H416.2z M424.4,449.8c5.5,0,9.4-4,9.4-9.4c0-5.5-3.9-9.5-9.4-9.5h-8.2c-5.3,0-9.3,4-9.3,9.5
			c0,5.5,3.9,9.4,9.3,9.4H424.4z"/>
		<radialGradient id="SVGID_8_" cx="459.4464" cy="440.287" r="15.4817" gradientUnits="userSpaceOnUse">
			<stop  offset="0" style="stop-color:#B9A9D3"/>
			<stop  offset="1" style="stop-color:#5A4C9A"/>
		</radialGradient>
		<path class="st7" d="M445.2,456.9v-33.2h7.1v26.1h21.5v7.1H445.2z"/>
		<radialGradient id="SVGID_9_" cx="481.1351" cy="453.592" r="3.6975" gradientUnits="userSpaceOnUse">
			<stop  offset="0" style="stop-color:#B9A9D3"/>
			<stop  offset="1" style="stop-color:#5A4C9A"/>
		</radialGradient>
		<path class="st8" d="M481.1,457.3c-2.1,0-3.7-1.6-3.7-3.7s1.6-3.7,3.7-3.7c2.1,0,3.7,1.6,3.7,3.7S483.2,457.3,481.1,457.3z"/>
		<radialGradient id="SVGID_10_" cx="507.475" cy="440.31" r="17.2549" gradientUnits="userSpaceOnUse">
			<stop  offset="0" style="stop-color:#B9A9D3"/>
			<stop  offset="1" style="stop-color:#5A4C9A"/>
		</radialGradient>
		<path class="st9" d="M496.7,434.8v22.1H490v-29.4c0-2.6,1.4-4.2,3.6-4.2c1,0,1.9,0.4,2.9,1.3l21.7,20.9v-22.1h6.8v29.7
			c0,2.6-1.5,4.2-3.6,4.2c-1.1,0-2-0.4-2.9-1.4L496.7,434.8z"/>
		<radialGradient id="SVGID_11_" cx="545.2087" cy="440.287" r="15.8563" gradientUnits="userSpaceOnUse">
			<stop  offset="0" style="stop-color:#B9A9D3"/>
			<stop  offset="1" style="stop-color:#5A4C9A"/>
		</radialGradient>
		<path class="st10" d="M530.1,456.9v-33.2h30.1v7.1h-23v18.9h23.1v7.1H530.1z M541.4,442.8v-5.6H559v5.6H541.4z"/>
		<radialGradient id="SVGID_12_" cx="578.606" cy="440.287" r="16.1746" gradientUnits="userSpaceOnUse">
			<stop  offset="0" style="stop-color:#B9A9D3"/>
			<stop  offset="1" style="stop-color:#5A4C9A"/>
		</radialGradient>
		<path class="st11" d="M575,456.9v-26.1h-12.2v-7.1h31.5v7.1h-12.2v26.1H575z"/>
	</g>
	<g>
		<radialGradient id="SVGID_13_" cx="325.7736" cy="490.6757" r="5.6594" gradientUnits="userSpaceOnUse">
			<stop  offset="0" style="stop-color:#B9A9D3"/>
			<stop  offset="1" style="stop-color:#5A4C9A"/>
		</radialGradient>
		<path class="st12" d="M326.8,497.1h-2.1v-11H321v-1.8h9.6v1.8h-3.8V497.1z"/>
		<radialGradient id="SVGID_14_" cx="337.589" cy="490.6757" r="5.7613" gradientUnits="userSpaceOnUse">
			<stop  offset="0" style="stop-color:#B9A9D3"/>
			<stop  offset="1" style="stop-color:#5A4C9A"/>
		</radialGradient>
		<path class="st13" d="M342.6,497.1h-2.1v-5.8h-5.9v5.8h-2.1v-12.8h2.1v5.2h5.9v-5.2h2.1V497.1z"/>
		<radialGradient id="SVGID_15_" cx="349.6227" cy="490.6757" r="5.1974" gradientUnits="userSpaceOnUse">
			<stop  offset="0" style="stop-color:#B9A9D3"/>
			<stop  offset="1" style="stop-color:#5A4C9A"/>
		</radialGradient>
		<path class="st14" d="M353.2,497.1H346v-12.8h7.2v1.8h-5.1v3.5h4.8v1.8h-4.8v4h5.1V497.1z"/>
		<radialGradient id="SVGID_16_" cx="366.0278" cy="490.6623" r="6.2976" gradientUnits="userSpaceOnUse">
			<stop  offset="0" style="stop-color:#B9A9D3"/>
			<stop  offset="1" style="stop-color:#5A4C9A"/>
		</radialGradient>
		<path class="st15" d="M372,490.7c0,2.1-0.5,3.7-1.6,4.9c-1,1.2-2.5,1.7-4.4,1.7c-1.9,0-3.4-0.6-4.5-1.7c-1-1.1-1.6-2.8-1.6-4.9
			s0.5-3.7,1.6-4.9c1-1.1,2.5-1.7,4.5-1.7c1.9,0,3.4,0.6,4.4,1.7C371.5,486.9,372,488.6,372,490.7z M362.3,490.7
			c0,1.6,0.3,2.8,1,3.6c0.6,0.8,1.6,1.2,2.8,1.2c1.2,0,2.2-0.4,2.8-1.2c0.6-0.8,0.9-2,0.9-3.6c0-1.6-0.3-2.8-0.9-3.6
			c-0.6-0.8-1.6-1.2-2.8-1.2c-1.3,0-2.2,0.4-2.8,1.2C362.6,487.9,362.3,489.1,362.3,490.7z"/>
		<radialGradient id="SVGID_17_" cx="379.5725" cy="490.6757" r="5.6557" gradientUnits="userSpaceOnUse">
			<stop  offset="0" style="stop-color:#B9A9D3"/>
			<stop  offset="1" style="stop-color:#5A4C9A"/>
		</radialGradient>
		<path class="st16" d="M376.9,492v5.1h-2.1v-12.8h3.6c1.7,0,2.9,0.3,3.7,0.9c0.8,0.6,1.2,1.6,1.2,2.8c0,1.6-0.8,2.7-2.5,3.4
			l3.6,5.7H382l-3.1-5.1H376.9z M376.9,490.2h1.5c1,0,1.7-0.2,2.1-0.5c0.4-0.4,0.7-0.9,0.7-1.6c0-0.7-0.2-1.2-0.7-1.6
			c-0.5-0.3-1.2-0.5-2.1-0.5h-1.4V490.2z"/>
		<radialGradient id="SVGID_18_" cx="390.464" cy="490.649" r="6.1796" gradientUnits="userSpaceOnUse">
			<stop  offset="0" style="stop-color:#B9A9D3"/>
			<stop  offset="1" style="stop-color:#5A4C9A"/>
		</radialGradient>
		<path class="st17" d="M394.2,497.1l-1.3-3.6H388l-1.3,3.6h-2.2l4.8-12.8h2.3l4.8,12.8H394.2z M392.3,491.7l-1.2-3.5
			c-0.1-0.2-0.2-0.6-0.4-1.1c-0.2-0.5-0.3-0.9-0.3-1.1c-0.2,0.7-0.4,1.5-0.7,2.4l-1.2,3.3H392.3z"/>
		<radialGradient id="SVGID_19_" cx="402.3047" cy="490.6712" r="5.7817" gradientUnits="userSpaceOnUse">
			<stop  offset="0" style="stop-color:#B9A9D3"/>
			<stop  offset="1" style="stop-color:#5A4C9A"/>
		</radialGradient>
		<path class="st18" d="M403.5,485.9c-1.2,0-2.1,0.4-2.8,1.3c-0.7,0.9-1,2-1,3.5c0,1.6,0.3,2.8,1,3.6c0.7,0.8,1.6,1.2,2.9,1.2
			c0.5,0,1.1-0.1,1.6-0.2c0.5-0.1,1-0.2,1.6-0.4v1.8c-1,0.4-2.1,0.6-3.4,0.6c-1.9,0-3.3-0.6-4.3-1.7c-1-1.1-1.5-2.8-1.5-4.9
			c0-1.3,0.2-2.5,0.7-3.5c0.5-1,1.2-1.8,2.1-2.3c0.9-0.5,2-0.8,3.2-0.8c1.3,0,2.5,0.3,3.6,0.8l-0.8,1.7c-0.4-0.2-0.9-0.4-1.4-0.5
			C404.6,486,404.1,485.9,403.5,485.9z"/>
		<radialGradient id="SVGID_20_" cx="413.1924" cy="490.6757" r="5.2453" gradientUnits="userSpaceOnUse">
			<stop  offset="0" style="stop-color:#B9A9D3"/>
			<stop  offset="1" style="stop-color:#5A4C9A"/>
		</radialGradient>
		<path class="st19" d="M409.4,497.1v-12.8h2.1v11h5.4v1.8H409.4z"/>
		<radialGradient id="SVGID_21_" cx="422.7717" cy="490.6757" r="5.1974" gradientUnits="userSpaceOnUse">
			<stop  offset="0" style="stop-color:#B9A9D3"/>
			<stop  offset="1" style="stop-color:#5A4C9A"/>
		</radialGradient>
		<path class="st20" d="M426.4,497.1h-7.2v-12.8h7.2v1.8h-5.1v3.5h4.8v1.8h-4.8v4h5.1V497.1z"/>
		<radialGradient id="SVGID_22_" cx="439.1768" cy="490.6623" r="6.2976" gradientUnits="userSpaceOnUse">
			<stop  offset="0" style="stop-color:#B9A9D3"/>
			<stop  offset="1" style="stop-color:#5A4C9A"/>
		</radialGradient>
		<path class="st21" d="M445.2,490.7c0,2.1-0.5,3.7-1.6,4.9c-1,1.2-2.5,1.7-4.4,1.7c-1.9,0-3.4-0.6-4.5-1.7c-1-1.1-1.6-2.8-1.6-4.9
			s0.5-3.7,1.6-4.9s2.5-1.7,4.5-1.7c1.9,0,3.4,0.6,4.4,1.7C444.7,486.9,445.2,488.6,445.2,490.7z M435.4,490.7c0,1.6,0.3,2.8,1,3.6
			c0.6,0.8,1.6,1.2,2.8,1.2c1.2,0,2.2-0.4,2.8-1.2c0.6-0.8,0.9-2,0.9-3.6c0-1.6-0.3-2.8-0.9-3.6c-0.6-0.8-1.6-1.2-2.8-1.2
			c-1.3,0-2.2,0.4-2.8,1.2C435.7,487.9,435.4,489.1,435.4,490.7z"/>
		<radialGradient id="SVGID_23_" cx="451.5311" cy="490.6757" r="5.1943" gradientUnits="userSpaceOnUse">
			<stop  offset="0" style="stop-color:#B9A9D3"/>
			<stop  offset="1" style="stop-color:#5A4C9A"/>
		</radialGradient>
		<path class="st22" d="M450,497.1h-2.1v-12.8h7.2v1.8H450v4h4.8v1.8H450V497.1z"/>
		<radialGradient id="SVGID_24_" cx="465.8707" cy="490.6757" r="5.2453" gradientUnits="userSpaceOnUse">
			<stop  offset="0" style="stop-color:#B9A9D3"/>
			<stop  offset="1" style="stop-color:#5A4C9A"/>
		</radialGradient>
		<path class="st23" d="M462.1,497.1v-12.8h2.1v11h5.4v1.8H462.1z"/>
		<radialGradient id="SVGID_25_" cx="472.8769" cy="490.6757" r="4.5838" gradientUnits="userSpaceOnUse">
			<stop  offset="0" style="stop-color:#B9A9D3"/>
			<stop  offset="1" style="stop-color:#5A4C9A"/>
		</radialGradient>
		<path class="st24" d="M471.8,497.1v-12.8h2.1v12.8H471.8z"/>
		<radialGradient id="SVGID_26_" cx="481.8869" cy="490.6757" r="5.5659" gradientUnits="userSpaceOnUse">
			<stop  offset="0" style="stop-color:#B9A9D3"/>
			<stop  offset="1" style="stop-color:#5A4C9A"/>
		</radialGradient>
		<path class="st25" d="M477.3,484.3h3.8c1.8,0,3,0.3,3.8,0.8c0.8,0.5,1.2,1.3,1.2,2.4c0,0.7-0.2,1.4-0.6,1.9
			c-0.4,0.5-0.9,0.8-1.7,0.9v0.1c0.9,0.2,1.6,0.5,2,1c0.4,0.5,0.6,1.2,0.6,2c0,1.1-0.4,2-1.2,2.7c-0.8,0.7-1.9,1-3.3,1h-4.6V484.3z
			 M479.4,489.6h2c0.9,0,1.5-0.1,1.9-0.4c0.4-0.3,0.6-0.7,0.6-1.4c0-0.6-0.2-1-0.7-1.3c-0.4-0.3-1.1-0.4-2.1-0.4h-1.8V489.6z
			 M479.4,491.3v4.1h2.2c0.9,0,1.5-0.2,2-0.5c0.4-0.3,0.7-0.9,0.7-1.6c0-0.7-0.2-1.2-0.7-1.5c-0.5-0.3-1.1-0.5-2.1-0.5H479.4z"/>
		<radialGradient id="SVGID_27_" cx="492.7531" cy="490.6757" r="5.1974" gradientUnits="userSpaceOnUse">
			<stop  offset="0" style="stop-color:#B9A9D3"/>
			<stop  offset="1" style="stop-color:#5A4C9A"/>
		</radialGradient>
		<path class="st26" d="M496.4,497.1h-7.2v-12.8h7.2v1.8h-5.1v3.5h4.8v1.8h-4.8v4h5.1V497.1z"/>
		<radialGradient id="SVGID_28_" cx="503.9377" cy="490.6757" r="5.6557" gradientUnits="userSpaceOnUse">
			<stop  offset="0" style="stop-color:#B9A9D3"/>
			<stop  offset="1" style="stop-color:#5A4C9A"/>
		</radialGradient>
		<path class="st27" d="M501.2,492v5.1h-2.1v-12.8h3.6c1.7,0,2.9,0.3,3.7,0.9c0.8,0.6,1.2,1.6,1.2,2.8c0,1.6-0.8,2.7-2.5,3.4
			l3.6,5.7h-2.4l-3.1-5.1H501.2z M501.2,490.2h1.5c1,0,1.7-0.2,2.1-0.5c0.4-0.4,0.7-0.9,0.7-1.6c0-0.7-0.2-1.2-0.7-1.6
			c-0.5-0.3-1.2-0.5-2.1-0.5h-1.4V490.2z"/>
		<radialGradient id="SVGID_29_" cx="513.9675" cy="490.6757" r="5.6594" gradientUnits="userSpaceOnUse">
			<stop  offset="0" style="stop-color:#B9A9D3"/>
			<stop  offset="1" style="stop-color:#5A4C9A"/>
		</radialGradient>
		<path class="st28" d="M515,497.1h-2.1v-11h-3.8v-1.8h9.6v1.8H515V497.1z"/>
		<radialGradient id="SVGID_30_" cx="524.3521" cy="490.6757" r="5.8761" gradientUnits="userSpaceOnUse">
			<stop  offset="0" style="stop-color:#B9A9D3"/>
			<stop  offset="1" style="stop-color:#5A4C9A"/>
		</radialGradient>
		<path class="st29" d="M524.4,490.1l3-5.8h2.3l-4.3,7.8v5h-2.1v-4.9l-4.2-7.9h2.3L524.4,490.1z"/>
	</g>
</g>
</svg>
