<svg version="1.1" xmlns="http://www.w3.org/2000/svg" xmlns:xlink="http://www.w3.org/1999/xlink" style="" xml:space="preserve" width="841.9000244140625" height="595.2999877929688"><rect id="backgroundrect" width="100%" height="100%" x="0" y="0" fill="none" stroke="none"/>
<style type="text/css">
	.st0{fill:#FFFFFF;}
</style>

<g class="currentLayer" style=""><title>Layer 1</title>
	<g id="svg_2" opacity="1" class="">
		<path class="st0" d="M453.6057815551758,184.3225212097168 c11.100000381469727,2.299999952316284 22,5.699999809265137 29.299999237060547,10.399999618530273 c0,0 -2.0999999046325684,22.799999237060547 -14.5,51.099998474121094 c3.200000047683716,1.5 6.5,3.200000047683716 9.800000190734863,5.199999809265137 c15.899999618530273,-35.20000076293945 18.600000381469727,-64.0999984741211 18.600000381469727,-64.0999984741211 c-8.699999809265137,-5.699999809265137 -21.799999237060547,-9.699999809265137 -35.099998474121094,-12.5 c-9.300000190734863,-2 -18.700000762939453,-3.299999952316284 -28.100000381469727,-4.099999904632568 c0.4000000059604645,4.099999904632568 0.6000000238418579,8 0.6000000238418579,10.899999618530273 C440.7057571411133,181.92251205444336 447.2057571411133,182.92251205444336 453.6057815551758,184.3225212097168 z" id="svg_3" opacity="1"/>
		<path class="st0" d="M448.8057327270508,248.3225212097168 c10.100000381469727,-21.200000762939453 11.800000190734863,-39.099998474121094 11.800000190734863,-39.099998474121094 c-4.900000095367432,-3.200000047683716 -12.399999618530273,-5.5 -19.899999618530273,-7.099999904632568 c-5.300000190734863,-1.100000023841858 -10.699999809265137,-1.899999976158142 -16.100000381469727,-2.4000000953674316 c0.10000000149011612,-5.5 -0.10000000149011612,-10.899999618530273 -0.4000000059604645,-15.899999618530273 l-1.100000023841858,-14.199999809265137 L421.90576934814453,159.72251510620117 c-1.5,-10.600000381469727 -3.0999999046325684,-17.200000762939453 -3.0999999046325684,-17.200000762939453 h-16.399999618530273 c2.299999952316284,9.5 4,18.5 5.099999904632568,27 c-14.300000190734863,0.4000000059604645 -28.600000381469727,2 -42.599998474121094,5 c-13.300000190734863,2.799999952316284 -26.399999618530273,6.800000190734863 -35.099998474121094,12.5 c0,0 3.5,37 25.700000762939453,78.5 l10.199999809265137,-4.199999809265137 c4.300000190734863,-2 11.699999809265137,-4.699999809265137 15.600000381469727,-6 l3.799999952316284,6.5 c6.800000190734863,10.699999809265137 15.899999618530273,21.5 28.200000762939453,30.700000762939453 c13.399999618530273,-10 23.100000381469727,-22 30,-33.70000076293945 c6,1.600000023841858 11.399999618530273,3.4000000953674316 16.100000381469727,5.099999904632568 c-10.300000190734863,18.200000762939453 -25.100000381469727,37.20000076293945 -46.099998474121094,53 c-19.100000381469727,-14.300000190734863 -33,-31.200000762939453 -43.099998474121094,-47.79999923706055 l-10,4.800000190734863 c12.300000190734863,20.700000762939453 29.299999237060547,41.900001525878906 53.099998474121094,59.70000076293945 c25.899999618530273,-19.399999618530273 43.900001525878906,-42.900001525878906 56.29999923706055,-65.30000305175781 c6.300000190734863,2.9000000953674316 9.899999618530273,5.199999809265137 9.899999618530273,5.199999809265137 l11.399999618530273,-6.800000190734863 C478.1057815551758,257.62250900268555 462.8057327270508,251.92252731323242 448.8057327270508,248.3225212097168 zM360.7057571411133,251.42252731323242 c-14.600000381469727,-30.799999237060547 -17,-56.70000076293945 -17,-56.70000076293945 c7.300000190734863,-4.699999809265137 18.200000762939453,-8.100000381469727 29.299999237060547,-10.399999618530273 c11.800000190734863,-2.5 23.799999237060547,-3.9000000953674316 35.79999923706055,-4.099999904632568 c0.6000000238418579,6.900000095367432 0.8999999761581421,13.300000190734863 0.8999999761581421,19.200000762939453 c-8,0.20000000298023224 -16,1.2000000476837158 -23.799999237060547,2.799999952316284 c-7.5,1.600000023841858 -15,3.9000000953674316 -19.899999618530273,7.099999904632568 c0,0 1.5,16 10.300000190734863,35.70000076293945 C370.90576934814453,246.72251510620117 363.90576934814453,249.92252731323242 360.7057571411133,251.42252731323242 zM413.3057327270508,278.7224998474121 c-32,-23.899999618530273 -35.5,-62.29999923706055 -35.5,-62.29999923706055 c3.9000000953674316,-2.5 9.899999618530273,-4.300000190734863 15.800000190734863,-5.5 c5.300000190734863,-1.100000023841858 10.600000381469727,-1.7000000476837158 16,-1.899999976158142 c-1.100000023841858,27.100000381469727 -7.099999904632568,42.5 -7.099999904632568,42.5 l-0.5,2.200000047683716 l14.399999618530273,1.100000023841858 c6.199999809265137,0.5 12.100000381469727,0.699999988079071 17.600000381469727,1.7999999523162842 C428.8057327270508,264.3225212097168 422.1057815551758,272.12250900268555 413.3057327270508,278.7224998474121 zM439.7057571411133,246.22251510620117 c-7.699999809265137,-1.600000023841858 -14.600000381469727,-2.5 -20.100000381469727,-3.0999999046325684 c2.799999952316284,-11.199999809265137 4.199999809265137,-22.600000381469727 4.800000190734863,-33.599998474121094 c2.9000000953674316,0.30000001192092896 5.800000190734863,0.800000011920929 8.699999809265137,1.2999999523162842 c5.900000095367432,1.2000000476837158 11.899999618530273,3 15.800000190734863,5.5 C448.8057327270508,216.3225212097168 447.50574493408203,230.12250900268555 439.7057571411133,246.22251510620117 z" id="svg_4" opacity="1"/>
	</g>
	
	
</g></svg>